<svg data-v-423bf9ae="" xmlns="http://www.w3.org/2000/svg" viewBox="0 0 338 90" class="iconLeft"><!----><!----><!----><g data-v-423bf9ae="" id="860b81fc-0ef0-442d-9013-053f19320cfe" fill="black" transform="matrix(4.651162928238593,0,0,4.651162928238593,90.17426823110466,12.860465310835004)"><path d="M3.54 1.75L4.77 1.29L4.66 0.70L0.95 0.70L0.84 1.29L2.07 1.75L2.07 9.45L0.84 9.91L0.95 10.50L4.66 10.50L4.77 9.91L3.54 9.45ZM14.15 5.53C14.15 8.43 12.89 10.05 11.13 10.05C9.00 10.05 8.11 8.51 8.11 5.53C8.11 2.53 9.03 1.15 11.13 1.15C13.22 1.15 14.15 2.62 14.15 5.53ZM10.85 11.75C15.01 10.00 15.79 7.57 15.79 5.60C15.79 2.70 14.24 0.46 11.13 0.46C8.01 0.46 6.45 3.01 6.45 5.60C6.45 8.19 7.77 10.72 11.10 10.74C10.36 11.37 9.48 11.91 8.47 12.42L8.78 12.95C9.59 12.60 10.37 12.36 11.35 12.36C12.64 12.36 13.37 13.36 14.53 13.36L15.79 12.17L15.55 11.97C15.18 12.21 14.87 12.29 14.57 12.29C13.90 12.29 13.20 11.69 12.07 11.69C11.73 11.69 11.34 11.75 10.89 11.84ZM20.12 10.05C19.70 10.05 19.42 10.00 19.05 9.88L18.62 8.19C17.93 8.19 17.37 8.41 17.37 9.16C17.37 10.53 19.46 10.74 20.22 10.74C22.68 10.74 23.70 9.62 23.70 8.08C23.70 6.45 22.46 5.68 20.99 4.94C20.19 4.54 18.63 3.89 18.63 2.88C18.63 1.96 19.25 1.15 20.51 1.15C20.93 1.15 21.21 1.20 21.57 1.32L22.01 3.01C22.69 3.01 23.25 2.59 23.25 1.90C23.25 0.53 21.28 0.46 20.52 0.46C18.77 0.46 17.33 1.27 17.33 2.98C17.33 4.89 18.55 5.46 19.61 6.01C20.62 6.52 22.41 7.17 22.41 8.39C22.41 9.46 21.49 10.05 20.12 10.05ZM28.97 0.70L25.73 9.45L24.53 9.91L24.63 10.50L27.82 10.50L27.92 9.91L26.47 9.45L27.27 7.20L30.94 7.20L31.72 9.45L30.52 9.91L30.62 10.50L34.43 10.50L34.54 9.91L33.33 9.45L30.18 0.46ZM29.32 1.78L29.32 2.49L30.73 6.61L27.50 6.61ZM39.30 0.70L36.06 9.45L34.86 9.91L34.96 10.50L38.15 10.50L38.25 9.91L36.81 9.45L37.60 7.20L41.27 7.20L42.06 9.45L40.85 9.91L40.95 10.50L44.76 10.50L44.87 9.91L43.67 9.45L40.52 0.46ZM39.65 1.78L39.65 2.49L41.06 6.61L37.83 6.61ZM45.26 3.19L45.85 3.29L46.62 1.29L48.52 1.29L48.52 9.45L47.31 9.91L47.40 10.50L51.13 10.50L51.23 9.91L50.01 9.45L50.01 1.29L51.91 1.29L52.68 3.29L53.27 3.19L53.27 0.70L45.26 0.70Z"></path></g><!----><g data-v-423bf9ae="" id="72feadb5-7bba-48b3-b238-2eb929e8bc8f" transform="matrix(2.8125,0,0,2.8125,-7.170000076293945,0)" stroke="none" fill="black"><path d="M2.83 18.247l26.34-9.124L2.83 0zM29.17 32V13.753L2.83 22.877z"></path></g><!----></svg>